# xmcd CD database file
#
# Track frame offsets:
#	150
#	19970
#	39620
#	59165
#	78665
#	109740
#
# Disc length: 4440 seconds
#
# Revision: 0
# Processed by: cddbd v1.5PL3 Copyright (c) Steve Scherf et al.
# Submitted via: CDex 1.51
#
DISCID=51115606
DTITLE=タッキー&翼 - Ｏｎｅ　Ｄａｙ，Ｏｎｅ　Ｄｒｅａｍ
DYEAR=2004
DGENRE=JPop
TTITLE0=Ｏｎｅ　Ｄａｙ，Ｏｎｅ　Ｄｒｅａｍ
TTITLE1=ＤＥＥＰ　ｉｎｔｏ　ＢＬＵＥ
TTITLE2=あるがまま
TTITLE3=愛世界
TTITLE4=Ｏｎｅ　Ｄａｙ、Ｏｎｅ　Ｄｒｅａｍ〜ｋａｒａｏｋｅ〜
TTITLE5=Data
EXTD=YEAR: 2004
EXTT0=
EXTT1=
EXTT2=
EXTT3=
EXTT4=
EXTT5=
PLAYORDER=
